<svg xmlns="http://www.w3.org/2000/svg" viewBox="0 0 1400 380" preserveAspectRatio="xMidYMax slice">
  <defs>
    <filter id="soft" x="-2%" y="-2%" width="104%" height="104%">
      <feGaussianBlur stdDeviation="0.8"/>
    </filter>
  </defs>
  <g fill="none" stroke-linecap="round" filter="url(#soft)">
    <path d="M -120 160 C 180 100, 380 220, 580 155 S 900 100, 1120 220 S 1350 245, 1520 175"
          stroke="#040308" stroke-width="10" stroke-opacity="0.92"/>
    <path d="M 250 175 C 340 195, 355 275, 440 260 S 545 210, 580 200"
          stroke="#040308" stroke-width="8" stroke-opacity="0.85"/>
    <path d="M 820 200 C 900 220, 940 300, 1020 285 S 1140 230, 1180 220"
          stroke="#040308" stroke-width="8" stroke-opacity="0.85"/>
    <path d="M -80 235 C 160 215, 400 300, 620 250 S 900 225, 1120 270 S 1360 250, 1520 258"
          stroke="#050308" stroke-width="7" stroke-opacity="0.8"/>
    <path d="M -60 295 Q 240 270, 500 302 T 900 295 T 1520 300"
          stroke="#060408" stroke-width="5" stroke-opacity="0.72"/>
    <path d="M 100 340 Q 400 325, 700 340 T 1300 345"
          stroke="#050308" stroke-width="3.8" stroke-opacity="0.58"/>
  </g>
  <g fill="none" stroke-linecap="round">
    <path d="M -120 158 C 180 98, 380 218, 580 153 S 900 98, 1120 218 S 1350 243, 1520 173"
          stroke="#c8323e" stroke-width="1.7" stroke-opacity="0.55"/>
    <path d="M -80 233 C 160 213, 400 298, 620 248 S 900 223, 1120 268 S 1360 248, 1520 256"
          stroke="#b02832" stroke-width="1.2" stroke-opacity="0.45"/>
    <path d="M -60 293 Q 240 268, 500 300 T 900 293 T 1520 298"
          stroke="#902028" stroke-width="0.9" stroke-opacity="0.4"/>
  </g>
</svg>
